{
  "source": "C:\\Users\\Peter\\Desktop\\stuff\\MIUN\\quantitative_research\\video_compression\\videos\\BVI-HD\\BVI-HD_CDVL_videos\\ORIG\\RockWave_1920x1080_30fps.mp4",
  "output": "C:\\Users\\Peter\\Desktop\\stuff\\MIUN\\quantitative_research\\video_compression\\compressed_videos\\BVI-HD\\hevc\\3\\RockWave_1920x1080_30fps_hevc.mp4",
  "codec": "hevc",
  "ok": "Input #0, mov,mp4,m4a,3gp,3g2,mj2, from 'C:\\Users\\Peter\\Desktop\\stuff\\MIUN\\quantitative_research\\video_compression\\videos\\BVI-HD\\BVI-HD_CDVL_videos\\ORIG\\RockWave_1920x1080_30fps.mp4':\n  Metadata:\n    major_brand     : isom\n    minor_version   : 512\n    compatible_brands: isomiso2avc1mp41\n    encoder         : Lavf54.28.101\n  Duration: 00:00:05.00, start: 0.000000, bitrate: 303557 kb/s\n  Stream #0:0[0x1](und): Video: h264 (High 4:4:4 Predictive) (avc1 / 0x31637661), yuv420p(progressive), 1920x1080, 303553 kb/s, 30 fps, 30 tbr, 30 tbn (default)\n    Metadata:\n      handler_name    : VideoHandler\n      vendor_id       : [0][0][0][0]\n[out#0/mp4 @ 0000029d4d4aab00] Codec AVOption b:a (set bitrate (in bits/s)) has not been used for any stream. The most likely reason is either wrong type (e.g. a video option with no video streams) or that it is a private option of some decoder which was not actually used for any stream.\nStream mapping:\n  Stream #0:0 -> #0:0 (h264 (native) -> hevc (libx265))\nPress [q] to stop, [?] for help\n[libx265 @ 0000029d4f610bc0] Unknown option: \"aq-mode.\nx265 [info]: HEVC encoder version 4.1+190-8f11c33ac\nx265 [info]: build info [Windows][GCC 15.1.0][64 bit] 10bit\nx265 [info]: using cpu capabilities: MMX2 SSE2Fast LZCNT SSSE3 SSE4.2 AVX FMA3 BMI2 AVX2\nx265 [info]: Main 10 profile, Level-4 (Main tier)\nx265 [info]: Thread pool created using 12 threads\nx265 [info]: Slices                              : 1\nx265 [info]: frame threads / pool features       : 3 / wpp(17 rows)\nx265 [info]: Coding QT: max CU size, min CU size : 64 / 8\nx265 [info]: Residual QT: max TU size, max depth : 32 / 1 inter / 1 intra\nx265 [info]: ME / range / subpel / merge         : star / 57 / 3 / 3\nx265 [info]: Keyframe min / max / scenecut / bias  : 25 / 250 / 40 / 5.00 \nx265 [info]: Lookahead / bframes / badapt        : 25 / 4 / 2\nx265 [info]: b-pyramid / weightp / weightb       : 1 / 1 / 0\nx265 [info]: References / ref-limit  cu / depth  : 4 / on / on\nx265 [info]: AQ: mode / str / qg-size / cu-tree  : 2 / 1.0 / 32 / 1\nx265 [info]: Rate Control / qCompress            : ABR-3000 kbps / 0.60\nx265 [info]: VBV/HRD buffer / max-rate / init    : 3000 / 3000 / 0.750\nx265 [info]: tools: rect limit-modes rd=4 psy-rd=2.00 rdoq=2 psy-rdoq=1.00\nx265 [info]: tools: rskip mode=1 signhide tmvp strong-intra-smoothing lslices=4\nx265 [info]: tools: deblock sao dhdr10-info\nOutput #0, mp4, to 'C:\\Users\\Peter\\Desktop\\stuff\\MIUN\\quantitative_research\\video_compression\\compressed_videos\\BVI-HD\\hevc\\3\\RockWave_1920x1080_30fps_hevc.mp4':\n  Metadata:\n    major_brand     : isom\n    minor_version   : 512\n    compatible_brands: isomiso2avc1mp41\n    encoder         : Lavf62.3.100\n  Stream #0:0(und): Video: hevc (hev1 / 0x31766568), yuv420p10le(tv, progressive), 1920x1080, q=2-31, 3000 kb/s, 30 fps, 15360 tbn (default)\n    Metadata:\n      encoder         : Lavc62.11.100 libx265\n      handler_name    : VideoHandler\n      vendor_id       : [0][0][0][0]\n    Side data:\n      cpb: bitrate max/min/avg: 3000000/0/3000000 buffer size: 3000000 vbv_delay: N/A\nframe=    0 fps=0.0 q=0.0 size=       0KiB time=N/A bitrate=N/A speed=N/A elapsed=0:00:01.06    \nframe=    0 fps=0.0 q=0.0 size=       0KiB time=N/A bitrate=N/A speed=N/A elapsed=0:00:01.77    \nframe=    0 fps=0.0 q=0.0 size=       0KiB time=N/A bitrate=N/A speed=N/A elapsed=0:00:02.35    \nframe=    0 fps=0.0 q=0.0 size=       0KiB time=N/A bitrate=N/A speed=N/A elapsed=0:00:02.89    \nframe=    0 fps=0.0 q=0.0 size=       0KiB time=N/A bitrate=N/A speed=N/A elapsed=0:00:03.41    \nframe=    0 fps=0.0 q=0.0 size=       0KiB time=N/A bitrate=N/A speed=N/A elapsed=0:00:03.94    \nframe=    0 fps=0.0 q=0.0 size=       0KiB time=N/A bitrate=N/A speed=N/A elapsed=0:00:04.49    \nframe=    0 fps=0.0 q=0.0 size=       0KiB time=N/A bitrate=N/A speed=N/A elapsed=0:00:05.08    \nframe=    0 fps=0.0 q=0.0 size=       0KiB time=N/A bitrate=N/A speed=N/A elapsed=0:00:05.67    \nframe=    0 fps=0.0 q=0.0 size=       0KiB time=N/A bitrate=N/A speed=N/A elapsed=0:00:06.30    \nframe=    0 fps=0.0 q=0.0 size=       0KiB time=N/A bitrate=N/A speed=N/A elapsed=0:00:07.06    \nframe=    0 fps=0.0 q=0.0 size=       0KiB time=N/A bitrate=N/A speed=N/A elapsed=0:00:07.70    \nframe=    0 fps=0.0 q=0.0 size=       0KiB time=N/A bitrate=N/A speed=N/A elapsed=0:00:08.37    \nframe=    0 fps=0.0 q=0.0 size=       0KiB time=N/A bitrate=N/A speed=N/A elapsed=0:00:08.95    \nframe=    0 fps=0.0 q=0.0 size=       0KiB time=N/A bitrate=N/A speed=N/A elapsed=0:00:09.53    \nframe=    0 fps=0.0 q=0.0 size=       0KiB time=N/A bitrate=N/A speed=N/A elapsed=0:00:10.09    \nframe=    0 fps=0.0 q=0.0 size=       0KiB time=N/A bitrate=N/A speed=N/A elapsed=0:00:10.63    \nframe=    0 fps=0.0 q=0.0 size=       0KiB time=N/A bitrate=N/A speed=N/A elapsed=0:00:11.19    \nframe=    0 fps=0.0 q=0.0 size=       0KiB time=N/A bitrate=N/A speed=N/A elapsed=0:00:11.73    \nframe=    0 fps=0.0 q=0.0 size=       0KiB time=N/A bitrate=N/A speed=N/A elapsed=0:00:12.30    \nframe=    0 fps=0.0 q=0.0 size=       0KiB time=N/A bitrate=N/A speed=N/A elapsed=0:00:12.83    \nframe=    0 fps=0.0 q=0.0 size=       0KiB time=N/A bitrate=N/A speed=N/A elapsed=0:00:13.36    \nframe=    0 fps=0.0 q=0.0 size=       0KiB time=N/A bitrate=N/A speed=N/A elapsed=0:00:14.21    \nframe=    0 fps=0.0 q=0.0 size=       0KiB time=N/A bitrate=N/A speed=N/A elapsed=0:00:15.03    \nframe=    0 fps=0.0 q=0.0 size=       0KiB time=N/A bitrate=N/A speed=N/A elapsed=0:00:15.92    \nframe=    0 fps=0.0 q=0.0 size=       0KiB time=N/A bitrate=N/A speed=N/A elapsed=0:00:16.57    \nframe=    0 fps=0.0 q=0.0 size=       0KiB time=N/A bitrate=N/A speed=N/A elapsed=0:00:17.26    \nframe=    0 fps=0.0 q=0.0 size=       0KiB time=N/A bitrate=N/A speed=N/A elapsed=0:00:18.09    \nframe=    1 fps=0.1 q=41.8 size=       0KiB time=-00:00:00.03 bitrate=N/A speed=N/A elapsed=0:00:18.78    \nframe=    1 fps=0.1 q=41.8 size=       0KiB time=-00:00:00.03 bitrate=N/A speed=N/A elapsed=0:00:19.48    \nframe=    1 fps=0.0 q=41.8 size=       0KiB time=-00:00:00.03 bitrate=N/A speed=N/A elapsed=0:00:20.05    \nframe=    1 fps=0.0 q=41.8 size=       0KiB time=-00:00:00.03 bitrate=N/A speed=N/A elapsed=0:00:20.63    \nframe=    1 fps=0.0 q=41.8 size=       0KiB time=-00:00:00.03 bitrate=N/A speed=N/A elapsed=0:00:21.26    \nframe=    1 fps=0.0 q=41.8 size=       0KiB time=-00:00:00.03 bitrate=N/A speed=N/A elapsed=0:00:21.80    \nframe=    1 fps=0.0 q=41.8 size=       0KiB time=-00:00:00.03 bitrate=N/A speed=N/A elapsed=0:00:22.36    \nframe=    1 fps=0.0 q=41.8 size=       0KiB time=-00:00:00.03 bitrate=N/A speed=N/A elapsed=0:00:22.89    \nframe=    1 fps=0.0 q=41.8 size=       0KiB time=-00:00:00.03 bitrate=N/A speed=N/A elapsed=0:00:23.44    \nframe=    1 fps=0.0 q=41.8 size=       0KiB time=-00:00:00.03 bitrate=N/A speed=N/A elapsed=0:00:24.18    \nframe=    2 fps=0.1 q=45.7 size=       0KiB time=00:00:00.00 bitrate=N/A speed=   0x elapsed=0:00:24.75    \nframe=    3 fps=0.1 q=48.9 size=       0KiB time=00:00:00.03 bitrate=  10.6kbits/s speed=0.00131x elapsed=0:00:25.39    \nframe=    3 fps=0.1 q=48.9 size=       0KiB time=00:00:00.03 bitrate=  10.6kbits/s speed=0.00128x elapsed=0:00:26.11    \nframe=    3 fps=0.1 q=48.9 size=       0KiB time=00:00:00.03 bitrate=  10.6kbits/s speed=0.00124x elapsed=0:00:26.79    \nframe=    3 fps=0.1 q=48.9 size=       0KiB time=00:00:00.03 bitrate=  10.6kbits/s speed=0.00122x elapsed=0:00:27.41    \nframe=    3 fps=0.1 q=48.9 size=       0KiB time=00:00:00.03 bitrate=  10.6kbits/s speed=0.00119x elapsed=0:00:27.97    \nframe=    3 fps=0.1 q=48.9 size=       0KiB time=00:00:00.03 bitrate=  10.6kbits/s speed=0.00117x elapsed=0:00:28.55    \nframe=    4 fps=0.1 q=50.9 size=       0KiB time=00:00:00.06 bitrate=   5.3kbits/s speed=0.00228x elapsed=0:00:29.18    \nframe=    4 fps=0.1 q=50.9 size=       0KiB time=00:00:00.06 bitrate=   5.3kbits/s speed=0.00224x elapsed=0:00:29.76    \nframe=    4 fps=0.1 q=50.9 size=       0KiB time=00:00:00.06 bitrate=   5.3kbits/s speed=0.00219x elapsed=0:00:30.39    \nframe=    4 fps=0.1 q=50.9 size=       0KiB time=00:00:00.06 bitrate=   5.3kbits/s speed=0.00215x elapsed=0:00:30.98    \nframe=    4 fps=0.1 q=50.9 size=       0KiB time=00:00:00.06 bitrate=   5.3kbits/s speed=0.00212x elapsed=0:00:31.51    \nframe=    5 fps=0.2 q=50.4 size=       0KiB time=00:00:00.10 bitrate=   3.5kbits/s speed=0.00312x elapsed=0:00:32.06    \nframe=    6 fps=0.2 q=45.2 size=       0KiB time=00:00:00.10 bitrate=   3.5kbits/s speed=0.00306x elapsed=0:00:32.63    \nframe=    7 fps=0.2 q=47.6 size=       0KiB time=00:00:00.16 bitrate=   2.1kbits/s speed=0.005x elapsed=0:00:33.30    \nframe=    7 fps=0.2 q=47.6 size=       0KiB time=00:00:00.16 bitrate=   2.1kbits/s speed=0.00492x elapsed=0:00:33.90    \nframe=    7 fps=0.2 q=47.6 size=       0KiB time=00:00:00.16 bitrate=   2.1kbits/s speed=0.00484x elapsed=0:00:34.43    \nframe=    7 fps=0.2 q=47.6 size=       0KiB time=00:00:00.16 bitrate=   2.1kbits/s speed=0.00476x elapsed=0:00:35.03    \nframe=    7 fps=0.2 q=47.6 size=       0KiB time=00:00:00.16 bitrate=   2.1kbits/s speed=0.00468x elapsed=0:00:35.58    \nframe=    7 fps=0.2 q=47.6 size=       0KiB time=00:00:00.16 bitrate=   2.1kbits/s speed=0.00461x elapsed=0:00:36.15    \nframe=    7 fps=0.2 q=47.6 size=       0KiB time=00:00:00.16 bitrate=   2.1kbits/s speed=0.00454x elapsed=0:00:36.72    \nframe=    8 fps=0.2 q=49.6 size=       0KiB time=00:00:00.20 bitrate=   1.8kbits/s speed=0.00535x elapsed=0:00:37.38    \nframe=    8 fps=0.2 q=49.6 size=       0KiB time=00:00:00.20 bitrate=   1.8kbits/s speed=0.00527x elapsed=0:00:37.95    \nframe=    8 fps=0.2 q=49.6 size=       0KiB time=00:00:00.20 bitrate=   1.8kbits/s speed=0.00519x elapsed=0:00:38.54    \nframe=    8 fps=0.2 q=49.6 size=       0KiB time=00:00:00.20 bitrate=   1.8kbits/s speed=0.00511x elapsed=0:00:39.12    \nframe=    8 fps=0.2 q=49.6 size=       0KiB time=00:00:00.20 bitrate=   1.8kbits/s speed=0.00504x elapsed=0:00:39.65    \nframe=    8 fps=0.2 q=49.6 size=       0KiB time=00:00:00.20 bitrate=   1.8kbits/s speed=0.00498x elapsed=0:00:40.18    \nframe=    9 fps=0.2 q=49.3 size=       0KiB time=00:00:00.23 bitrate=   1.5kbits/s speed=0.00573x elapsed=0:00:40.72    \nframe=   10 fps=0.2 q=44.4 size=       0KiB time=00:00:00.26 bitrate=   1.3kbits/s speed=0.00646x elapsed=0:00:41.25    \nframe=   10 fps=0.2 q=44.4 size=       0KiB time=00:00:00.26 bitrate=   1.3kbits/s speed=0.00638x elapsed=0:00:41.78    \nframe=   10 fps=0.2 q=44.4 size=       0KiB time=00:00:00.26 bitrate=   1.3kbits/s speed=0.0063x elapsed=0:00:42.32    \nframe=   10 fps=0.2 q=44.4 size=       0KiB time=00:00:00.26 bitrate=   1.3kbits/s speed=0.00621x elapsed=0:00:42.93    \nframe=   11 fps=0.3 q=47.2 size=       0KiB time=00:00:00.30 bitrate=   1.2kbits/s speed=0.0069x elapsed=0:00:43.46    \nframe=   11 fps=0.2 q=47.2 size=       0KiB time=00:00:00.30 bitrate=   1.2kbits/s speed=0.00681x elapsed=0:00:44.05    \nframe=   11 fps=0.2 q=47.2 size=       0KiB time=00:00:00.30 bitrate=   1.2kbits/s speed=0.00673x elapsed=0:00:44.59    \nframe=   11 fps=0.2 q=47.2 size=       0KiB time=00:00:00.30 bitrate=   1.2kbits/s speed=0.00665x elapsed=0:00:45.12    \nframe=   11 fps=0.2 q=47.2 size=       0KiB time=00:00:00.30 bitrate=   1.2kbits/s speed=0.00657x elapsed=0:00:45.67    \nframe=   11 fps=0.2 q=47.2 size=       0KiB time=00:00:00.30 bitrate=   1.2kbits/s speed=0.00649x elapsed=0:00:46.18    \nframe=   12 fps=0.3 q=49.2 size=       0KiB time=00:00:00.33 bitrate=   1.1kbits/s speed=0.00713x elapsed=0:00:46.73    \nframe=   12 fps=0.3 q=49.2 size=       0KiB time=00:00:00.33 bitrate=   1.1kbits/s speed=0.00705x elapsed=0:00:47.28    \nframe=   12 fps=0.3 q=49.2 size=       0KiB time=00:00:00.33 bitrate=   1.1kbits/s speed=0.00697x elapsed=0:00:47.80    \nframe=   12 fps=0.2 q=49.2 size=       0KiB time=00:00:00.33 bitrate=   1.1kbits/s speed=0.00689x elapsed=0:00:48.41    \nframe=   12 fps=0.2 q=49.2 size=       0KiB time=00:00:00.33 bitrate=   1.1kbits/s speed=0.00679x elapsed=0:00:49.10    \nframe=   12 fps=0.2 q=49.2 size=       0KiB time=00:00:00.33 bitrate=   1.1kbits/s speed=0.00669x elapsed=0:00:49.79    \nframe=   12 fps=0.2 q=49.2 size=       0KiB time=00:00:00.33 bitrate=   1.1kbits/s speed=0.00662x elapsed=0:00:50.36    \nframe=   12 fps=0.2 q=49.2 size=       0KiB time=00:00:00.33 bitrate=   1.1kbits/s speed=0.00655x elapsed=0:00:50.91    \nframe=   13 fps=0.3 q=49.1 size=       0KiB time=00:00:00.36 bitrate=   1.0kbits/s speed=0.00712x elapsed=0:00:51.46    \nframe=   13 fps=0.2 q=49.1 size=       0KiB time=00:00:00.36 bitrate=   1.0kbits/s speed=0.00704x elapsed=0:00:52.11    \nframe=   13 fps=0.2 q=49.1 size=       0KiB time=00:00:00.36 bitrate=   1.0kbits/s speed=0.00696x elapsed=0:00:52.69    \nframe=   13 fps=0.2 q=49.1 size=       0KiB time=00:00:00.36 bitrate=   1.0kbits/s speed=0.00689x elapsed=0:00:53.22    \nframe=   13 fps=0.2 q=49.1 size=       0KiB time=00:00:00.36 bitrate=   1.0kbits/s speed=0.00681x elapsed=0:00:53.84    \nframe=   13 fps=0.2 q=49.1 size=       0KiB time=00:00:00.36 bitrate=   1.0kbits/s speed=0.00674x elapsed=0:00:54.41    \nframe=   13 fps=0.2 q=49.1 size=       0KiB time=00:00:00.36 bitrate=   1.0kbits/s speed=0.00667x elapsed=0:00:54.98    \nframe=   13 fps=0.2 q=49.1 size=       0KiB time=00:00:00.36 bitrate=   1.0kbits/s speed=0.00659x elapsed=0:00:55.62    \nframe=   13 fps=0.2 q=49.1 size=       0KiB time=00:00:00.36 bitrate=   1.0kbits/s speed=0.00652x elapsed=0:00:56.19    \nframe=   13 fps=0.2 q=49.1 size=       0KiB time=00:00:00.36 bitrate=   1.0kbits/s speed=0.00646x elapsed=0:00:56.73    \nframe=   13 fps=0.2 q=49.1 size=       0KiB time=00:00:00.36 bitrate=   1.0kbits/s speed=0.00639x elapsed=0:00:57.39    \nframe=   14 fps=0.2 q=44.4 size=       0KiB time=00:00:00.40 bitrate=   0.9kbits/s speed=0.0069x elapsed=0:00:57.98    \nframe=   14 fps=0.2 q=44.4 size=       0KiB time=00:00:00.40 bitrate=   0.9kbits/s speed=0.00684x elapsed=0:00:58.51    \nframe=   14 fps=0.2 q=44.4 size=       0KiB time=00:00:00.40 bitrate=   0.9kbits/s speed=0.00676x elapsed=0:00:59.19    \nframe=   15 fps=0.3 q=47.4 size=       0KiB time=00:00:00.43 bitrate=   0.8kbits/s speed=0.00725x elapsed=0:00:59.73    \nframe=   15 fps=0.2 q=47.4 size=       0KiB time=00:00:00.43 bitrate=   0.8kbits/s speed=0.00719x elapsed=0:01:00.25    \nframe=   15 fps=0.2 q=47.4 size=       0KiB time=00:00:00.43 bitrate=   0.8kbits/s speed=0.00713x elapsed=0:01:00.76    \nframe=   16 fps=0.3 q=49.1 size=       0KiB time=00:00:00.46 bitrate=   0.8kbits/s speed=0.00761x elapsed=0:01:01.28    \nframe=   16 fps=0.3 q=49.1 size=       0KiB time=00:00:00.46 bitrate=   0.8kbits/s speed=0.00755x elapsed=0:01:01.79    \nframe=   17 fps=0.3 q=49.4 size=       0KiB time=00:00:00.50 bitrate=   0.7kbits/s speed=0.00802x elapsed=0:01:02.31    \nframe=   17 fps=0.3 q=49.4 size=       0KiB time=00:00:00.50 bitrate=   0.7kbits/s speed=0.00796x elapsed=0:01:02.84    \nframe=   17 fps=0.3 q=49.4 size=       0KiB time=00:00:00.50 bitrate=   0.7kbits/s speed=0.00789x elapsed=0:01:03.38    \nframe=   17 fps=0.3 q=49.4 size=       0KiB time=00:00:00.50 bitrate=   0.7kbits/s speed=0.00782x elapsed=0:01:03.91    \nframe=   17 fps=0.3 q=49.4 size=       0KiB time=00:00:00.50 bitrate=   0.7kbits/s speed=0.00776x elapsed=0:01:04.41    \nframe=   17 fps=0.3 q=49.4 size=       0KiB time=00:00:00.50 bitrate=   0.7kbits/s speed=0.0077x elapsed=0:01:04.94    \nframe=   17 fps=0.3 q=49.4 size=       0KiB time=00:00:00.50 bitrate=   0.7kbits/s speed=0.00764x elapsed=0:01:05.46    \nframe=   17 fps=0.3 q=49.4 size=       0KiB time=00:00:00.50 bitrate=   0.7kbits/s speed=0.00757x elapsed=0:01:06.02    \nframe=   17 fps=0.3 q=49.4 size=       0KiB time=00:00:00.50 bitrate=   0.7kbits/s speed=0.00751x elapsed=0:01:06.54    \nframe=   18 fps=0.3 q=44.4 size=       0KiB time=00:00:00.53 bitrate=   0.7kbits/s speed=0.00795x elapsed=0:01:07.07    \nframe=   19 fps=0.3 q=47.0 size=       0KiB time=00:00:00.56 bitrate=   0.6kbits/s speed=0.00838x elapsed=0:01:07.59    \nframe=   19 fps=0.3 q=47.0 size=       0KiB time=00:00:00.56 bitrate=   0.6kbits/s speed=0.00832x elapsed=0:01:08.11    \nframe=   19 fps=0.3 q=47.0 size=       0KiB time=00:00:00.56 bitrate=   0.6kbits/s speed=0.00826x elapsed=0:01:08.61    \nframe=   19 fps=0.3 q=47.0 size=       0KiB time=00:00:00.56 bitrate=   0.6kbits/s speed=0.00819x elapsed=0:01:09.14    \nframe=   19 fps=0.3 q=47.0 size=       0KiB time=00:00:00.56 bitrate=   0.6kbits/s speed=0.00813x elapsed=0:01:09.66    \nframe=   19 fps=0.3 q=47.0 size=       0KiB time=00:00:00.56 bitrate=   0.6kbits/s speed=0.00807x elapsed=0:01:10.19    \nframe=   19 fps=0.3 q=47.0 size=       0KiB time=00:00:00.56 bitrate=   0.6kbits/s speed=0.00801x elapsed=0:01:10.71    \nframe=   20 fps=0.3 q=49.3 size=     256KiB time=00:00:00.60 bitrate=3495.8kbits/s speed=0.00842x elapsed=0:01:11.23    \nframe=   20 fps=0.3 q=49.3 size=     256KiB time=00:00:00.60 bitrate=3495.8kbits/s speed=0.00836x elapsed=0:01:11.74    \nframe=   20 fps=0.3 q=49.3 size=     256KiB time=00:00:00.60 bitrate=3495.8kbits/s speed=0.0083x elapsed=0:01:12.26    \nframe=   20 fps=0.3 q=49.3 size=     256KiB time=00:00:00.60 bitrate=3495.8kbits/s speed=0.00824x elapsed=0:01:12.78    \nframe=   21 fps=0.3 q=49.4 size=     256KiB time=00:00:00.63 bitrate=3311.9kbits/s speed=0.00864x elapsed=0:01:13.31    \nframe=   21 fps=0.3 q=49.4 size=     256KiB time=00:00:00.63 bitrate=3311.9kbits/s speed=0.00858x elapsed=0:01:13.83    \nframe=   21 fps=0.3 q=49.4 size=     256KiB time=00:00:00.63 bitrate=3311.9kbits/s speed=0.00852x elapsed=0:01:14.34    \nframe=   21 fps=0.3 q=49.4 size=     256KiB time=00:00:00.63 bitrate=3311.9kbits/s speed=0.00846x elapsed=0:01:14.85    \nframe=   21 fps=0.3 q=49.4 size=     256KiB time=00:00:00.63 bitrate=3311.9kbits/s speed=0.0084x elapsed=0:01:15.36    \nframe=   21 fps=0.3 q=49.4 size=     256KiB time=00:00:00.63 bitrate=3311.9kbits/s speed=0.00835x elapsed=0:01:15.88    \nframe=   22 fps=0.3 q=44.4 size=     256KiB time=00:00:00.66 bitrate=3146.3kbits/s speed=0.00873x elapsed=0:01:16.40    \nframe=   23 fps=0.3 q=48.0 size=     256KiB time=00:00:00.70 bitrate=2996.4kbits/s speed=0.0091x elapsed=0:01:16.92    \nframe=   23 fps=0.3 q=48.0 size=     256KiB time=00:00:00.70 bitrate=2996.4kbits/s speed=0.00904x elapsed=0:01:17.43    \nframe=   23 fps=0.3 q=48.0 size=     256KiB time=00:00:00.70 bitrate=2996.4kbits/s speed=0.00898x elapsed=0:01:17.95    \nframe=   23 fps=0.3 q=48.0 size=     256KiB time=00:00:00.70 bitrate=2996.4kbits/s speed=0.00892x elapsed=0:01:18.47    \nframe=   24 fps=0.3 q=49.0 size=     256KiB time=00:00:00.73 bitrate=2860.2kbits/s speed=0.00928x elapsed=0:01:18.98    \nframe=   24 fps=0.3 q=49.0 size=     256KiB time=00:00:00.73 bitrate=2860.2kbits/s speed=0.00922x elapsed=0:01:19.49    \nframe=   24 fps=0.3 q=49.0 size=     256KiB time=00:00:00.73 bitrate=2860.2kbits/s speed=0.00916x elapsed=0:01:20.01    \nframe=   25 fps=0.3 q=49.1 size=     256KiB time=00:00:00.76 bitrate=2735.9kbits/s speed=0.00952x elapsed=0:01:20.55    \nframe=   25 fps=0.3 q=49.1 size=     256KiB time=00:00:00.76 bitrate=2735.9kbits/s speed=0.00946x elapsed=0:01:21.05    \nframe=   25 fps=0.3 q=49.1 size=     256KiB time=00:00:00.76 bitrate=2735.9kbits/s speed=0.0094x elapsed=0:01:21.57    \nframe=   25 fps=0.3 q=49.1 size=     256KiB time=00:00:00.76 bitrate=2735.9kbits/s speed=0.00934x elapsed=0:01:22.09    \nframe=   25 fps=0.3 q=49.1 size=     256KiB time=00:00:00.76 bitrate=2735.9kbits/s speed=0.00928x elapsed=0:01:22.61    \nframe=   25 fps=0.3 q=49.1 size=     256KiB time=00:00:00.76 bitrate=2735.9kbits/s speed=0.00922x elapsed=0:01:23.14    \nframe=   25 fps=0.3 q=49.1 size=     256KiB time=00:00:00.76 bitrate=2735.9kbits/s speed=0.00916x elapsed=0:01:23.68    \nframe=   25 fps=0.3 q=49.1 size=     256KiB time=00:00:00.76 bitrate=2735.9kbits/s speed=0.0091x elapsed=0:01:24.22    \nframe=   25 fps=0.3 q=49.1 size=     256KiB time=00:00:00.76 bitrate=2735.9kbits/s speed=0.00904x elapsed=0:01:24.81    \nframe=   26 fps=0.3 q=49.0 size=     256KiB time=00:00:00.80 bitrate=2621.9kbits/s speed=0.00937x elapsed=0:01:25.35    \nframe=   26 fps=0.3 q=49.0 size=     256KiB time=00:00:00.80 bitrate=2621.9kbits/s speed=0.00931x elapsed=0:01:25.91    \nframe=   26 fps=0.3 q=49.0 size=     256KiB time=00:00:00.80 bitrate=2621.9kbits/s speed=0.00925x elapsed=0:01:26.45    \nframe=   26 fps=0.3 q=49.0 size=     256KiB time=00:00:00.80 bitrate=2621.9kbits/s speed=0.00919x elapsed=0:01:27.00    \nframe=   26 fps=0.3 q=49.0 size=     256KiB time=00:00:00.80 bitrate=2621.9kbits/s speed=0.00914x elapsed=0:01:27.52    \nframe=   26 fps=0.3 q=49.0 size=     256KiB time=00:00:00.80 bitrate=2621.9kbits/s speed=0.00909x elapsed=0:01:28.05    \nframe=   26 fps=0.3 q=49.0 size=     256KiB time=00:00:00.80 bitrate=2621.9kbits/s speed=0.00903x elapsed=0:01:28.57    \nframe=   27 fps=0.3 q=44.1 size=     256KiB time=00:00:00.83 bitrate=2517.0kbits/s speed=0.00935x elapsed=0:01:29.11    \nframe=   27 fps=0.3 q=44.1 size=     256KiB time=00:00:00.83 bitrate=2517.0kbits/s speed=0.0093x elapsed=0:01:29.63    \nframe=   27 fps=0.3 q=44.1 size=     256KiB time=00:00:00.83 bitrate=2517.0kbits/s speed=0.00925x elapsed=0:01:30.13    \nframe=   27 fps=0.3 q=44.1 size=     256KiB time=00:00:00.83 bitrate=2517.0kbits/s speed=0.00919x elapsed=0:01:30.65    \nframe=   27 fps=0.3 q=44.1 size=     256KiB time=00:00:00.83 bitrate=2517.0kbits/s speed=0.00914x elapsed=0:01:31.17    \nframe=   28 fps=0.3 q=46.9 size=     256KiB time=00:00:00.86 bitrate=2420.2kbits/s speed=0.00945x elapsed=0:01:31.68    \nframe=   28 fps=0.3 q=46.9 size=     256KiB time=00:00:00.86 bitrate=2420.2kbits/s speed=0.0094x elapsed=0:01:32.20    \nframe=   28 fps=0.3 q=46.9 size=     256KiB time=00:00:00.86 bitrate=2420.2kbits/s speed=0.00935x elapsed=0:01:32.72    \nframe=   28 fps=0.3 q=46.9 size=     256KiB time=00:00:00.86 bitrate=2420.2kbits/s speed=0.00929x elapsed=0:01:33.24    \nframe=   28 fps=0.3 q=46.9 size=     256KiB time=00:00:00.86 bitrate=2420.2kbits/s speed=0.00924x elapsed=0:01:33.76    \nframe=   29 fps=0.3 q=49.0 size=     256KiB time=00:00:00.90 bitrate=2330.6kbits/s speed=0.00955x elapsed=0:01:34.27    \nframe=   29 fps=0.3 q=49.0 size=     256KiB time=00:00:00.90 bitrate=2330.6kbits/s speed=0.00949x elapsed=0:01:34.79    \nframe=   29 fps=0.3 q=49.0 size=     256KiB time=00:00:00.90 bitrate=2330.6kbits/s speed=0.00944x elapsed=0:01:35.30    \nframe=   29 fps=0.3 q=49.0 size=     256KiB time=00:00:00.90 bitrate=2330.6kbits/s speed=0.00939x elapsed=0:01:35.83    \nframe=   29 fps=0.3 q=49.0 size=     256KiB time=00:00:00.90 bitrate=2330.6kbits/s speed=0.00934x elapsed=0:01:36.38    \nframe=   30 fps=0.3 q=49.0 size=     256KiB time=00:00:00.93 bitrate=2247.3kbits/s speed=0.00963x elapsed=0:01:36.90    \nframe=   30 fps=0.3 q=49.0 size=     256KiB time=00:00:00.93 bitrate=2247.3kbits/s speed=0.00958x elapsed=0:01:37.42    \nframe=   30 fps=0.3 q=49.0 size=     256KiB time=00:00:00.93 bitrate=2247.3kbits/s speed=0.00953x elapsed=0:01:37.93    \nframe=   30 fps=0.3 q=49.0 size=     256KiB time=00:00:00.93 bitrate=2247.3kbits/s speed=0.00948x elapsed=0:01:38.45    \nframe=   31 fps=0.3 q=44.3 size=     256KiB time=00:00:00.96 bitrate=2169.8kbits/s speed=0.00977x elapsed=0:01:38.98    \nframe=   31 fps=0.3 q=44.3 size=     256KiB time=00:00:00.96 bitrate=2169.8kbits/s speed=0.00971x elapsed=0:01:39.57    \nframe=   31 fps=0.3 q=44.3 size=     256KiB time=00:00:00.96 bitrate=2169.8kbits/s speed=0.00965x elapsed=0:01:40.12    \nframe=   31 fps=0.3 q=44.3 size=     256KiB time=00:00:00.96 bitrate=2169.8kbits/s speed=0.0096x elapsed=0:01:40.67    \nframe=   31 fps=0.3 q=44.3 size=     256KiB time=00:00:00.96 bitrate=2169.8kbits/s speed=0.00955x elapsed=0:01:41.20    \nframe=   31 fps=0.3 q=44.3 size=     256KiB time=00:00:00.96 bitrate=2169.8kbits/s speed=0.0095x elapsed=0:01:41.72    \nframe=   31 fps=0.3 q=44.3 size=     256KiB time=00:00:00.96 bitrate=2169.8kbits/s speed=0.00945x elapsed=0:01:42.25    \nframe=   32 fps=0.3 q=47.3 size=     256KiB time=00:00:01.00 bitrate=2097.5kbits/s speed=0.00973x elapsed=0:01:42.78    \nframe=   32 fps=0.3 q=47.3 size=     256KiB time=00:00:01.00 bitrate=2097.5kbits/s speed=0.00968x elapsed=0:01:43.30    \nframe=   32 fps=0.3 q=47.3 size=     256KiB time=00:00:01.00 bitrate=2097.5kbits/s speed=0.00963x elapsed=0:01:43.82    \nframe=   32 fps=0.3 q=47.3 size=     256KiB time=00:00:01.00 bitrate=2097.5kbits/s speed=0.00958x elapsed=0:01:44.33    \nframe=   32 fps=0.3 q=47.3 size=     256KiB time=00:00:01.00 bitrate=2097.5kbits/s speed=0.00953x elapsed=0:01:44.88    \nframe=   32 fps=0.3 q=47.3 size=     256KiB time=00:00:01.00 bitrate=2097.5kbits/s speed=0.00949x elapsed=0:01:45.42    \nframe=   32 fps=0.3 q=47.3 size=     256KiB time=00:00:01.00 bitrate=2097.5kbits/s speed=0.00944x elapsed=0:01:45.93    \nframe=   32 fps=0.3 q=47.3 size=     256KiB time=00:00:01.00 bitrate=2097.5kbits/s speed=0.00939x elapsed=0:01:46.45    \nframe=   33 fps=0.3 q=49.3 size=     256KiB time=00:00:01.03 bitrate=2029.8kbits/s speed=0.00966x elapsed=0:01:46.96    \nframe=   33 fps=0.3 q=49.3 size=     256KiB time=00:00:01.03 bitrate=2029.8kbits/s speed=0.00961x elapsed=0:01:47.48    \nframe=   33 fps=0.3 q=49.3 size=     256KiB time=00:00:01.03 bitrate=2029.8kbits/s speed=0.00957x elapsed=0:01:48.00    \nframe=   33 fps=0.3 q=49.3 size=     256KiB time=00:00:01.03 bitrate=2029.8kbits/s speed=0.00952x elapsed=0:01:48.53    \nframe=   33 fps=0.3 q=49.3 size=     256KiB time=00:00:01.03 bitrate=2029.8kbits/s speed=0.00947x elapsed=0:01:49.07    \nframe=   33 fps=0.3 q=49.3 size=     256KiB time=00:00:01.03 bitrate=2029.8kbits/s speed=0.00943x elapsed=0:01:49.57    \nframe=   33 fps=0.3 q=49.3 size=     256KiB time=00:00:01.03 bitrate=2029.8kbits/s speed=0.00939x elapsed=0:01:50.09    \nframe=   34 fps=0.3 q=49.2 size=     256KiB time=00:00:01.06 bitrate=1966.4kbits/s speed=0.00964x elapsed=0:01:50.61    \nframe=   34 fps=0.3 q=49.2 size=     256KiB time=00:00:01.06 bitrate=1966.4kbits/s speed=0.0096x elapsed=0:01:51.11    \nframe=   34 fps=0.3 q=49.2 size=     256KiB time=00:00:01.06 bitrate=1966.4kbits/s speed=0.00955x elapsed=0:01:51.63    \nframe=   34 fps=0.3 q=49.2 size=     256KiB time=00:00:01.06 bitrate=1966.4kbits/s speed=0.00951x elapsed=0:01:52.15    \nframe=   35 fps=0.3 q=44.5 size=     256KiB time=00:00:01.10 bitrate=1906.8kbits/s speed=0.00976x elapsed=0:01:52.67    \nframe=   36 fps=0.3 q=46.8 size=     256KiB time=00:00:01.13 bitrate=1850.7kbits/s speed=0.01x elapsed=0:01:53.18    \nframe=   36 fps=0.3 q=46.8 size=     256KiB time=00:00:01.13 bitrate=1850.7kbits/s speed=0.00997x elapsed=0:01:53.70    \nframe=   36 fps=0.3 q=46.8 size=     256KiB time=00:00:01.13 bitrate=1850.7kbits/s speed=0.00992x elapsed=0:01:54.21    \nframe=   36 fps=0.3 q=46.8 size=     256KiB time=00:00:01.13 bitrate=1850.7kbits/s speed=0.00988x elapsed=0:01:54.73    \nframe=   36 fps=0.3 q=46.8 size=     256KiB time=00:00:01.13 bitrate=1850.7kbits/s speed=0.00983x elapsed=0:01:55.25    \nframe=   36 fps=0.3 q=46.8 size=     256KiB time=00:00:01.13 bitrate=1850.7kbits/s speed=0.00979x elapsed=0:01:55.75    \nframe=   36 fps=0.3 q=46.8 size=     256KiB time=00:00:01.13 bitrate=1850.7kbits/s speed=0.00975x elapsed=0:01:56.28    \nframe=   36 fps=0.3 q=46.8 size=     256KiB time=00:00:01.13 bitrate=1850.7kbits/s speed=0.0097x elapsed=0:01:56.80    \nframe=   36 fps=0.3 q=46.8 size=     256KiB time=00:00:01.13 bitrate=1850.7kbits/s speed=0.00966x elapsed=0:01:57.35    \nframe=   36 fps=0.3 q=46.8 size=     256KiB time=00:00:01.13 bitrate=1850.7kbits/s speed=0.00961x elapsed=0:01:57.87    \nframe=   37 fps=0.3 q=49.3 size=     256KiB time=00:00:01.16 bitrate=1797.9kbits/s speed=0.00985x elapsed=0:01:58.39    \nframe=   37 fps=0.3 q=49.3 size=     256KiB time=00:00:01.16 bitrate=1797.9kbits/s speed=0.00981x elapsed=0:01:58.91    \nframe=   38 fps=0.3 q=48.9 size=     256KiB time=00:00:01.20 bitrate=1747.9kbits/s speed=0.01x elapsed=0:01:59.41    \nframe=   38 fps=0.3 q=48.9 size=     256KiB time=00:00:01.20 bitrate=1747.9kbits/s speed=0.01x elapsed=0:01:59.99    \nframe=   38 fps=0.3 q=48.9 size=     256KiB time=00:00:01.20 bitrate=1747.9kbits/s speed=0.00996x elapsed=0:02:00.52    \nframe=   38 fps=0.3 q=48.9 size=     256KiB time=00:00:01.20 bitrate=1747.9kbits/s speed=0.00991x elapsed=0:02:01.03    \nframe=   39 fps=0.3 q=44.3 size=     256KiB time=00:00:01.23 bitrate=1700.7kbits/s speed=0.0101x elapsed=0:02:01.55    \nframe=   40 fps=0.3 q=47.0 size=     256KiB time=00:00:01.26 bitrate=1655.9kbits/s speed=0.0104x elapsed=0:02:02.07    \nframe=   40 fps=0.3 q=47.0 size=     256KiB time=00:00:01.26 bitrate=1655.9kbits/s speed=0.0103x elapsed=0:02:02.60    \nframe=   40 fps=0.3 q=47.0 size=     256KiB time=00:00:01.26 bitrate=1655.9kbits/s speed=0.0103x elapsed=0:02:03.12    \nframe=   40 fps=0.3 q=47.0 size=     256KiB time=00:00:01.26 bitrate=1655.9kbits/s speed=0.0102x elapsed=0:02:03.63    \nframe=   40 fps=0.3 q=47.0 size=     256KiB time=00:00:01.26 bitrate=1655.9kbits/s speed=0.0102x elapsed=0:02:04.15    \nframe=   40 fps=0.3 q=47.0 size=     256KiB time=00:00:01.26 bitrate=1655.9kbits/s speed=0.0102x elapsed=0:02:04.67    \nframe=   40 fps=0.3 q=47.0 size=     256KiB time=00:00:01.26 bitrate=1655.9kbits/s speed=0.0101x elapsed=0:02:05.19    \nframe=   40 fps=0.3 q=47.0 size=     256KiB time=00:00:01.26 bitrate=1655.9kbits/s speed=0.0101x elapsed=0:02:05.77    \nframe=   40 fps=0.3 q=47.0 size=     256KiB time=00:00:01.26 bitrate=1655.9kbits/s speed=0.01x elapsed=0:02:06.29    \nframe=   41 fps=0.3 q=49.1 size=     512KiB time=00:00:01.30 bitrate=3226.7kbits/s speed=0.0103x elapsed=0:02:06.81    \nframe=   41 fps=0.3 q=49.1 size=     512KiB time=00:00:01.30 bitrate=3226.7kbits/s speed=0.0102x elapsed=0:02:07.35    \nframe=   41 fps=0.3 q=49.1 size=     512KiB time=00:00:01.30 bitrate=3226.7kbits/s speed=0.0102x elapsed=0:02:07.86    \nframe=   42 fps=0.3 q=49.3 size=     512KiB time=00:00:01.33 bitrate=3146.0kbits/s speed=0.0104x elapsed=0:02:08.38    \nframe=   42 fps=0.3 q=49.3 size=     512KiB time=00:00:01.33 bitrate=3146.0kbits/s speed=0.0103x elapsed=0:02:08.90    \nframe=   42 fps=0.3 q=49.3 size=     512KiB time=00:00:01.33 bitrate=3146.0kbits/s speed=0.0103x elapsed=0:02:09.42    \nframe=   42 fps=0.3 q=49.3 size=     512KiB time=00:00:01.33 bitrate=3146.0kbits/s speed=0.0103x elapsed=0:02:09.95    \nframe=   42 fps=0.3 q=49.3 size=     512KiB time=00:00:01.33 bitrate=3146.0kbits/s speed=0.0102x elapsed=0:02:10.49    \nframe=   42 fps=0.3 q=49.3 size=     512KiB time=00:00:01.33 bitrate=3146.0kbits/s speed=0.0102x elapsed=0:02:11.02    \nframe=   42 fps=0.3 q=49.3 size=     512KiB time=00:00:01.33 bitrate=3146.0kbits/s speed=0.0101x elapsed=0:02:11.54    \nframe=   42 fps=0.3 q=49.3 size=     512KiB time=00:00:01.33 bitrate=3146.0kbits/s speed=0.0101x elapsed=0:02:12.07    \nframe=   42 fps=0.3 q=49.3 size=     512KiB time=00:00:01.33 bitrate=3146.0kbits/s speed=0.0101x elapsed=0:02:12.57    \nframe=   43 fps=0.3 q=44.7 size=     512KiB time=00:00:01.36 bitrate=3069.3kbits/s speed=0.0103x elapsed=0:02:13.12    \nframe=   43 fps=0.3 q=44.7 size=     512KiB time=00:00:01.36 bitrate=3069.3kbits/s speed=0.0102x elapsed=0:02:13.63    \nframe=   43 fps=0.3 q=44.7 size=     512KiB time=00:00:01.36 bitrate=3069.3kbits/s speed=0.0102x elapsed=0:02:14.18    \nframe=   43 fps=0.3 q=44.7 size=     512KiB time=00:00:01.36 bitrate=3069.3kbits/s speed=0.0101x elapsed=0:02:14.71    \nframe=   43 fps=0.3 q=44.7 size=     512KiB time=00:00:01.36 bitrate=3069.3kbits/s speed=0.0101x elapsed=0:02:15.24    \nframe=   44 fps=0.3 q=47.0 size=     512KiB time=00:00:01.40 bitrate=2996.2kbits/s speed=0.0103x elapsed=0:02:15.76    \nframe=   44 fps=0.3 q=47.0 size=     512KiB time=00:00:01.40 bitrate=2996.2kbits/s speed=0.0103x elapsed=0:02:16.27    \nframe=   44 fps=0.3 q=47.0 size=     512KiB time=00:00:01.40 bitrate=2996.2kbits/s speed=0.0102x elapsed=0:02:16.86    \nframe=   44 fps=0.3 q=47.0 size=     512KiB time=00:00:01.40 bitrate=2996.2kbits/s speed=0.0102x elapsed=0:02:17.39    \nframe=   45 fps=0.3 q=49.1 size=     512KiB time=00:00:01.43 bitrate=2926.5kbits/s speed=0.0104x elapsed=0:02:17.91    \nframe=   45 fps=0.3 q=49.1 size=     512KiB time=00:00:01.43 bitrate=2926.5kbits/s speed=0.0104x elapsed=0:02:18.44    \nframe=   45 fps=0.3 q=49.1 size=     512KiB time=00:00:01.43 bitrate=2926.5kbits/s speed=0.0103x elapsed=0:02:18.97    \nframe=   46 fps=0.3 q=49.1 size=     512KiB time=00:00:01.46 bitrate=2860.0kbits/s speed=0.0105x elapsed=0:02:19.49    \nframe=   46 fps=0.3 q=49.1 size=     512KiB time=00:00:01.46 bitrate=2860.0kbits/s speed=0.0105x elapsed=0:02:20.01    \nframe=   46 fps=0.3 q=49.1 size=     512KiB time=00:00:01.46 bitrate=2860.0kbits/s speed=0.0104x elapsed=0:02:20.52    \nframe=   46 fps=0.3 q=49.1 size=     512KiB time=00:00:01.46 bitrate=2860.0kbits/s speed=0.0104x elapsed=0:02:21.04    \nframe=   47 fps=0.3 q=44.6 size=     512KiB time=00:00:01.50 bitrate=2796.4kbits/s speed=0.0106x elapsed=0:02:21.58    \nframe=   48 fps=0.3 q=47.4 size=     512KiB time=00:00:01.53 bitrate=2735.6kbits/s speed=0.0108x elapsed=0:02:22.18    \nframe=   48 fps=0.3 q=47.4 size=     512KiB time=00:00:01.53 bitrate=2735.6kbits/s speed=0.0107x elapsed=0:02:22.70    \nframe=   48 fps=0.3 q=47.4 size=     512KiB time=00:00:01.53 bitrate=2735.6kbits/s speed=0.0107x elapsed=0:02:23.23    \nframe=   48 fps=0.3 q=47.4 size=     512KiB time=00:00:01.53 bitrate=2735.6kbits/s speed=0.0107x elapsed=0:02:23.74    \nframe=   48 fps=0.3 q=47.4 size=     512KiB time=00:00:01.53 bitrate=2735.6kbits/s speed=0.0106x elapsed=0:02:24.26    \nframe=   49 fps=0.3 q=49.1 size=     512KiB time=00:00:01.56 bitrate=2677.4kbits/s speed=0.0108x elapsed=0:02:24.81    \nframe=   49 fps=0.3 q=49.1 size=     512KiB time=00:00:01.56 bitrate=2677.4kbits/s speed=0.0108x elapsed=0:02:25.35    \nframe=   49 fps=0.3 q=49.1 size=     512KiB time=00:00:01.56 bitrate=2677.4kbits/s speed=0.0107x elapsed=0:02:25.91    \nframe=   49 fps=0.3 q=49.1 size=     512KiB time=00:00:01.56 bitrate=2677.4kbits/s speed=0.0107x elapsed=0:02:26.42    \nframe=   49 fps=0.3 q=49.1 size=     512KiB time=00:00:01.56 bitrate=2677.4kbits/s speed=0.0107x elapsed=0:02:26.93    \nframe=   49 fps=0.3 q=49.1 size=     512KiB time=00:00:01.56 bitrate=2677.4kbits/s speed=0.0106x elapsed=0:02:27.46    \nframe=   50 fps=0.3 q=49.3 size=     512KiB time=00:00:01.60 bitrate=2621.7kbits/s speed=0.0108x elapsed=0:02:27.98    \nframe=   50 fps=0.3 q=49.3 size=     512KiB time=00:00:01.60 bitrate=2621.7kbits/s speed=0.0108x elapsed=0:02:28.51    \nframe=   50 fps=0.3 q=49.3 size=     512KiB time=00:00:01.60 bitrate=2621.7kbits/s speed=0.0107x elapsed=0:02:29.03    \nframe=   50 fps=0.3 q=49.3 size=     512KiB time=00:00:01.60 bitrate=2621.7kbits/s speed=0.0107x elapsed=0:02:29.56    \nframe=   51 fps=0.3 q=44.9 size=     512KiB time=00:00:01.63 bitrate=2568.2kbits/s speed=0.0109x elapsed=0:02:30.08    \nframe=   51 fps=0.3 q=44.9 size=     512KiB time=00:00:01.63 bitrate=2568.2kbits/s speed=0.0108x elapsed=0:02:30.63    \nframe=   52 fps=0.3 q=47.1 size=     512KiB time=00:00:01.66 bitrate=2516.8kbits/s speed=0.011x elapsed=0:02:31.17    \nframe=   52 fps=0.3 q=47.1 size=     512KiB time=00:00:01.66 bitrate=2516.8kbits/s speed=0.011x elapsed=0:02:31.70    \nframe=   52 fps=0.3 q=47.1 size=     512KiB time=00:00:01.66 bitrate=2516.8kbits/s speed=0.0109x elapsed=0:02:32.21    \nframe=   52 fps=0.3 q=47.1 size=     512KiB time=00:00:01.66 bitrate=2516.8kbits/s speed=0.0109x elapsed=0:02:32.76    \nframe=   53 fps=0.3 q=49.1 size=     512KiB time=00:00:01.70 bitrate=2467.4kbits/s speed=0.0111x elapsed=0:02:33.28    \nframe=   53 fps=0.3 q=49.1 size=     512KiB time=00:00:01.70 bitrate=2467.4kbits/s speed=0.0111x elapsed=0:02:33.82    \nframe=   53 fps=0.3 q=49.1 size=     512KiB time=00:00:01.70 bitrate=2467.4kbits/s speed=0.011x elapsed=0:02:34.34    \nframe=   53 fps=0.3 q=49.1 size=     512KiB time=00:00:01.70 bitrate=2467.4kbits/s speed=0.011x elapsed=0:02:34.85    \nframe=   54 fps=0.3 q=49.2 size=     512KiB time=00:00:01.73 bitrate=2420.0kbits/s speed=0.0112x elapsed=0:02:35.37    \nframe=   54 fps=0.3 q=49.2 size=     512KiB time=00:00:01.73 bitrate=2420.0kbits/s speed=0.0111x elapsed=0:02:35.88    \nframe=   54 fps=0.3 q=49.2 size=     512KiB time=00:00:01.73 bitrate=2420.0kbits/s speed=0.0111x elapsed=0:02:36.40    \nframe=   55 fps=0.4 q=44.4 size=     512KiB time=00:00:01.76 bitrate=2374.3kbits/s speed=0.0113x elapsed=0:02:36.95    \nframe=   55 fps=0.3 q=44.4 size=     512KiB time=00:00:01.76 bitrate=2374.3kbits/s speed=0.0112x elapsed=0:02:37.51    \nframe=   56 fps=0.4 q=46.9 size=     512KiB time=00:00:01.80 bitrate=2330.4kbits/s speed=0.0114x elapsed=0:02:38.02    \nframe=   56 fps=0.4 q=46.9 size=     512KiB time=00:00:01.80 bitrate=2330.4kbits/s speed=0.0114x elapsed=0:02:38.57    \nframe=   56 fps=0.4 q=46.9 size=     512KiB time=00:00:01.80 bitrate=2330.4kbits/s speed=0.0113x elapsed=0:02:39.07    \nframe=   57 fps=0.4 q=49.0 size=     512KiB time=00:00:01.83 bitrate=2288.0kbits/s speed=0.0115x elapsed=0:02:39.59    \nframe=   57 fps=0.4 q=49.0 size=     512KiB time=00:00:01.83 bitrate=2288.0kbits/s speed=0.0115x elapsed=0:02:40.11    \nframe=   57 fps=0.4 q=49.0 size=     512KiB time=00:00:01.83 bitrate=2288.0kbits/s speed=0.0114x elapsed=0:02:40.65    \nframe=   58 fps=0.4 q=49.3 size=     512KiB time=00:00:01.86 bitrate=2247.1kbits/s speed=0.0116x elapsed=0:02:41.18    \nframe=   59 fps=0.4 q=44.3 size=     512KiB time=00:00:01.90 bitrate=2207.7kbits/s speed=0.0117x elapsed=0:02:41.77    \nframe=   60 fps=0.4 q=47.1 size=     512KiB time=00:00:01.90 bitrate=2207.7kbits/s speed=0.0117x elapsed=0:02:42.30    \nframe=   60 fps=0.4 q=47.1 size=     512KiB time=00:00:01.93 bitrate=2169.7kbits/s speed=0.0119x elapsed=0:02:42.88    \nframe=   60 fps=0.4 q=47.1 size=     512KiB time=00:00:01.93 bitrate=2169.7kbits/s speed=0.0118x elapsed=0:02:43.41    \nframe=   60 fps=0.4 q=47.1 size=     512KiB time=00:00:01.93 bitrate=2169.7kbits/s speed=0.0118x elapsed=0:02:44.03    \nframe=   60 fps=0.4 q=47.1 size=     512KiB time=00:00:01.93 bitrate=2169.7kbits/s speed=0.0117x elapsed=0:02:44.63    \nframe=   60 fps=0.4 q=47.1 size=     512KiB time=00:00:01.93 bitrate=2169.7kbits/s speed=0.0117x elapsed=0:02:45.20    \nframe=   61 fps=0.4 q=49.2 size=     512KiB time=00:00:01.96 bitrate=2132.9kbits/s speed=0.0119x elapsed=0:02:45.72    \nframe=   61 fps=0.4 q=49.2 size=     512KiB time=00:00:01.96 bitrate=2132.9kbits/s speed=0.0118x elapsed=0:02:46.24    \nframe=   61 fps=0.4 q=49.2 size=     512KiB time=00:00:01.96 bitrate=2132.9kbits/s speed=0.0118x elapsed=0:02:46.77    \nframe=   61 fps=0.4 q=49.2 size=     512KiB time=00:00:01.96 bitrate=2132.9kbits/s speed=0.0118x elapsed=0:02:47.30    \nframe=   61 fps=0.4 q=49.2 size=     512KiB time=00:00:01.96 bitrate=2132.9kbits/s speed=0.0117x elapsed=0:02:47.87    \nframe=   61 fps=0.4 q=49.2 size=     512KiB time=00:00:01.96 bitrate=2132.9kbits/s speed=0.0117x elapsed=0:02:48.54    \nframe=   61 fps=0.4 q=49.2 size=     512KiB time=00:00:01.96 bitrate=2132.9kbits/s speed=0.0116x elapsed=0:02:49.06    \nframe=   61 fps=0.4 q=49.2 size=     512KiB time=00:00:01.96 bitrate=2132.9kbits/s speed=0.0116x elapsed=0:02:49.57    \nframe=   62 fps=0.4 q=48.9 size=     512KiB time=00:00:02.00 bitrate=2097.3kbits/s speed=0.0118x elapsed=0:02:50.10    \nframe=   62 fps=0.4 q=48.9 size=     512KiB time=00:00:02.00 bitrate=2097.3kbits/s speed=0.0117x elapsed=0:02:50.67    \nframe=   62 fps=0.4 q=48.9 size=     512KiB time=00:00:02.00 bitrate=2097.3kbits/s speed=0.0117x elapsed=0:02:51.22    \nframe=   62 fps=0.4 q=48.9 size=     512KiB time=00:00:02.00 bitrate=2097.3kbits/s speed=0.0116x elapsed=0:02:51.74    \nframe=   62 fps=0.4 q=48.9 size=     512KiB time=00:00:02.00 bitrate=2097.3kbits/s speed=0.0116x elapsed=0:02:52.26    \nframe=   62 fps=0.4 q=48.9 size=     512KiB time=00:00:02.00 bitrate=2097.3kbits/s speed=0.0116x elapsed=0:02:52.79    \nframe=   62 fps=0.4 q=48.9 size=     512KiB time=00:00:02.00 bitrate=2097.3kbits/s speed=0.0115x elapsed=0:02:53.31    \nframe=   62 fps=0.4 q=48.9 size=     512KiB time=00:00:02.00 bitrate=2097.3kbits/s speed=0.0115x elapsed=0:02:53.82    \nframe=   62 fps=0.4 q=48.9 size=     512KiB time=00:00:02.00 bitrate=2097.3kbits/s speed=0.0115x elapsed=0:02:54.39    \nframe=   63 fps=0.4 q=44.6 size=     768KiB time=00:00:02.03 bitrate=3094.3kbits/s speed=0.0116x elapsed=0:02:54.95    \nframe=   63 fps=0.4 q=44.6 size=     768KiB time=00:00:02.03 bitrate=3094.3kbits/s speed=0.0116x elapsed=0:02:55.48    \nframe=   63 fps=0.4 q=44.6 size=     768KiB time=00:00:02.03 bitrate=3094.3kbits/s speed=0.0116x elapsed=0:02:55.99    \nframe=   63 fps=0.4 q=44.6 size=     768KiB time=00:00:02.03 bitrate=3094.3kbits/s speed=0.0115x elapsed=0:02:56.51    \nframe=   63 fps=0.4 q=44.6 size=     768KiB time=00:00:02.03 bitrate=3094.3kbits/s speed=0.0115x elapsed=0:02:57.03    \nframe=   63 fps=0.4 q=44.6 size=     768KiB time=00:00:02.03 bitrate=3094.3kbits/s speed=0.0115x elapsed=0:02:57.56    \nframe=   63 fps=0.4 q=44.6 size=     768KiB time=00:00:02.03 bitrate=3094.3kbits/s speed=0.0114x elapsed=0:02:58.08    \nframe=   63 fps=0.4 q=44.6 size=     768KiB time=00:00:02.03 bitrate=3094.3kbits/s speed=0.0114x elapsed=0:02:58.60    \nframe=   63 fps=0.4 q=44.6 size=     768KiB time=00:00:02.03 bitrate=3094.3kbits/s speed=0.0114x elapsed=0:02:59.12    \nframe=   63 fps=0.4 q=44.6 size=     768KiB time=00:00:02.03 bitrate=3094.3kbits/s speed=0.0113x elapsed=0:02:59.64    \nframe=   63 fps=0.3 q=44.6 size=     768KiB time=00:00:02.03 bitrate=3094.3kbits/s speed=0.0113x elapsed=0:03:00.16    \nframe=   64 fps=0.4 q=47.0 size=     768KiB time=00:00:02.06 bitrate=3044.4kbits/s speed=0.0114x elapsed=0:03:00.68    \nframe=   64 fps=0.4 q=47.0 size=     768KiB time=00:00:02.06 bitrate=3044.4kbits/s speed=0.0114x elapsed=0:03:01.21    \nframe=   65 fps=0.4 q=49.1 size=     768KiB time=00:00:02.10 bitrate=2996.1kbits/s speed=0.0116x elapsed=0:03:01.74    \nframe=   66 fps=0.4 q=49.3 size=     768KiB time=00:00:02.13 bitrate=2949.3kbits/s speed=0.0117x elapsed=0:03:02.24    \nframe=   67 fps=0.4 q=44.0 size=     768KiB time=00:00:02.16 bitrate=2903.9kbits/s speed=0.0119x elapsed=0:03:02.76    \nframe=   67 fps=0.4 q=44.0 size=     768KiB time=00:00:02.16 bitrate=2903.9kbits/s speed=0.0118x elapsed=0:03:03.28    \nframe=   67 fps=0.4 q=44.0 size=     768KiB time=00:00:02.16 bitrate=2903.9kbits/s speed=0.0118x elapsed=0:03:03.79    \nframe=   67 fps=0.4 q=44.0 size=     768KiB time=00:00:02.16 bitrate=2903.9kbits/s speed=0.0118x elapsed=0:03:04.31    \nframe=   68 fps=0.4 q=47.5 size=     768KiB time=00:00:02.20 bitrate=2859.9kbits/s speed=0.0119x elapsed=0:03:04.83    \nframe=   68 fps=0.4 q=47.5 size=     768KiB time=00:00:02.20 bitrate=2859.9kbits/s speed=0.0119x elapsed=0:03:05.35    \nframe=   68 fps=0.4 q=47.5 size=     768KiB time=00:00:02.20 bitrate=2859.9kbits/s speed=0.0118x elapsed=0:03:05.85    \nframe=   69 fps=0.4 q=48.6 size=     768KiB time=00:00:02.23 bitrate=2817.2kbits/s speed=0.012x elapsed=0:03:06.38    \nframe=   69 fps=0.4 q=48.6 size=     768KiB time=00:00:02.23 bitrate=2817.2kbits/s speed=0.0119x elapsed=0:03:06.89    \nframe=   70 fps=0.4 q=49.2 size=     768KiB time=00:00:02.26 bitrate=2775.8kbits/s speed=0.0121x elapsed=0:03:07.40    \nframe=   71 fps=0.4 q=49.3 size=     768KiB time=00:00:02.30 bitrate=2735.6kbits/s speed=0.0122x elapsed=0:03:07.91    \nframe=   71 fps=0.4 q=49.3 size=     768KiB time=00:00:02.30 bitrate=2735.6kbits/s speed=0.0122x elapsed=0:03:08.43    \nframe=   71 fps=0.4 q=49.3 size=     768KiB time=00:00:02.30 bitrate=2735.6kbits/s speed=0.0122x elapsed=0:03:08.95    \nframe=   72 fps=0.4 q=44.1 size=     768KiB time=00:00:02.33 bitrate=2696.5kbits/s speed=0.0123x elapsed=0:03:09.46    \nframe=   72 fps=0.4 q=44.1 size=     768KiB time=00:00:02.33 bitrate=2696.5kbits/s speed=0.0123x elapsed=0:03:09.99    \nframe=   72 fps=0.4 q=44.1 size=     768KiB time=00:00:02.33 bitrate=2696.5kbits/s speed=0.0122x elapsed=0:03:10.51    \nframe=   72 fps=0.4 q=44.1 size=     768KiB time=00:00:02.33 bitrate=2696.5kbits/s speed=0.0122x elapsed=0:03:11.03    \nframe=   72 fps=0.4 q=44.1 size=     768KiB time=00:00:02.33 bitrate=2696.5kbits/s speed=0.0122x elapsed=0:03:11.54    \nframe=   72 fps=0.4 q=44.1 size=     768KiB time=00:00:02.33 bitrate=2696.5kbits/s speed=0.0121x elapsed=0:03:12.06    \nframe=   72 fps=0.4 q=44.1 size=     768KiB time=00:00:02.33 bitrate=2696.5kbits/s speed=0.0121x elapsed=0:03:12.57    \nframe=   72 fps=0.4 q=44.1 size=     768KiB time=00:00:02.33 bitrate=2696.5kbits/s speed=0.0121x elapsed=0:03:13.08    \nframe=   73 fps=0.4 q=46.9 size=     768KiB time=00:00:02.36 bitrate=2658.5kbits/s speed=0.0122x elapsed=0:03:13.60    \nframe=   73 fps=0.4 q=46.9 size=     768KiB time=00:00:02.36 bitrate=2658.5kbits/s speed=0.0122x elapsed=0:03:14.12    \nframe=   74 fps=0.4 q=49.0 size=     768KiB time=00:00:02.40 bitrate=2621.6kbits/s speed=0.0123x elapsed=0:03:14.64    \nframe=   75 fps=0.4 q=49.0 size=     768KiB time=00:00:02.43 bitrate=2585.7kbits/s speed=0.0125x elapsed=0:03:15.16    \nframe=   75 fps=0.4 q=49.0 size=     768KiB time=00:00:02.43 bitrate=2585.7kbits/s speed=0.0124x elapsed=0:03:15.67    \nframe=   75 fps=0.4 q=49.0 size=     768KiB time=00:00:02.43 bitrate=2585.7kbits/s speed=0.0124x elapsed=0:03:16.19    \nframe=   75 fps=0.4 q=49.0 size=     768KiB time=00:00:02.43 bitrate=2585.7kbits/s speed=0.0124x elapsed=0:03:16.72    \nframe=   75 fps=0.4 q=49.0 size=     768KiB time=00:00:02.43 bitrate=2585.7kbits/s speed=0.0123x elapsed=0:03:17.22    \nframe=   75 fps=0.4 q=49.0 size=     768KiB time=00:00:02.43 bitrate=2585.7kbits/s speed=0.0123x elapsed=0:03:17.75    \nframe=   75 fps=0.4 q=49.0 size=     768KiB time=00:00:02.43 bitrate=2585.7kbits/s speed=0.0123x elapsed=0:03:18.28    \nframe=   76 fps=0.4 q=44.4 size=     768KiB time=00:00:02.46 bitrate=2550.7kbits/s speed=0.0124x elapsed=0:03:18.80    \nframe=   76 fps=0.4 q=44.4 size=     768KiB time=00:00:02.46 bitrate=2550.7kbits/s speed=0.0124x elapsed=0:03:19.31    \nframe=   76 fps=0.4 q=44.4 size=     768KiB time=00:00:02.46 bitrate=2550.7kbits/s speed=0.0123x elapsed=0:03:19.82    \nframe=   76 fps=0.4 q=44.4 size=     768KiB time=00:00:02.46 bitrate=2550.7kbits/s speed=0.0123x elapsed=0:03:20.34    \nframe=   76 fps=0.4 q=44.4 size=     768KiB time=00:00:02.46 bitrate=2550.7kbits/s speed=0.0123x elapsed=0:03:20.86    \nframe=   76 fps=0.4 q=44.4 size=     768KiB time=00:00:02.46 bitrate=2550.7kbits/s speed=0.0122x elapsed=0:03:21.39    \nframe=   76 fps=0.4 q=44.4 size=     768KiB time=00:00:02.46 bitrate=2550.7kbits/s speed=0.0122x elapsed=0:03:21.90    \nframe=   77 fps=0.4 q=47.6 size=     768KiB time=00:00:02.50 bitrate=2516.7kbits/s speed=0.0124x elapsed=0:03:22.42    \nframe=   77 fps=0.4 q=47.6 size=     768KiB time=00:00:02.50 bitrate=2516.7kbits/s speed=0.0123x elapsed=0:03:22.95    \nframe=   77 fps=0.4 q=47.6 size=     768KiB time=00:00:02.50 bitrate=2516.7kbits/s speed=0.0123x elapsed=0:03:23.48    \nframe=   78 fps=0.4 q=48.8 size=     768KiB time=00:00:02.53 bitrate=2483.6kbits/s speed=0.0124x elapsed=0:03:23.99    \nframe=   78 fps=0.4 q=48.8 size=     768KiB time=00:00:02.53 bitrate=2483.6kbits/s speed=0.0124x elapsed=0:03:24.51    \nframe=   78 fps=0.4 q=48.8 size=     768KiB time=00:00:02.53 bitrate=2483.6kbits/s speed=0.0124x elapsed=0:03:25.03    \nframe=   79 fps=0.4 q=48.7 size=     768KiB time=00:00:02.56 bitrate=2451.4kbits/s speed=0.0125x elapsed=0:03:25.54    \nframe=   79 fps=0.4 q=48.7 size=     768KiB time=00:00:02.56 bitrate=2451.4kbits/s speed=0.0125x elapsed=0:03:26.06    \nframe=   79 fps=0.4 q=48.7 size=     768KiB time=00:00:02.56 bitrate=2451.4kbits/s speed=0.0124x elapsed=0:03:26.60    \nframe=   80 fps=0.4 q=48.6 size=     768KiB time=00:00:02.60 bitrate=2419.9kbits/s speed=0.0126x elapsed=0:03:27.10    \nframe=   80 fps=0.4 q=48.6 size=     768KiB time=00:00:02.60 bitrate=2419.9kbits/s speed=0.0125x elapsed=0:03:27.63    \nframe=   80 fps=0.4 q=48.6 size=     768KiB time=00:00:02.60 bitrate=2419.9kbits/s speed=0.0125x elapsed=0:03:28.16    \nframe=   81 fps=0.4 q=44.7 size=     768KiB time=00:00:02.63 bitrate=2389.3kbits/s speed=0.0126x elapsed=0:03:28.67    \nframe=   81 fps=0.4 q=44.7 size=     768KiB time=00:00:02.63 bitrate=2389.3kbits/s speed=0.0126x elapsed=0:03:29.21    \nframe=   81 fps=0.4 q=44.7 size=     768KiB time=00:00:02.63 bitrate=2389.3kbits/s speed=0.0126x elapsed=0:03:29.76    \nframe=   81 fps=0.4 q=44.7 size=     768KiB time=00:00:02.63 bitrate=2389.3kbits/s speed=0.0125x elapsed=0:03:30.31    \nframe=   81 fps=0.4 q=44.7 size=     768KiB time=00:00:02.63 bitrate=2389.3kbits/s speed=0.0125x elapsed=0:03:30.83    \nframe=   81 fps=0.4 q=44.7 size=     768KiB time=00:00:02.63 bitrate=2389.3kbits/s speed=0.0125x elapsed=0:03:31.36    \nframe=   82 fps=0.4 q=47.1 size=     768KiB time=00:00:02.66 bitrate=2359.4kbits/s speed=0.0126x elapsed=0:03:31.87    \nframe=   82 fps=0.4 q=47.1 size=     768KiB time=00:00:02.66 bitrate=2359.4kbits/s speed=0.0126x elapsed=0:03:32.39    \nframe=   83 fps=0.4 q=48.9 size=     768KiB time=00:00:02.70 bitrate=2330.3kbits/s speed=0.0127x elapsed=0:03:32.91    \nframe=   83 fps=0.4 q=48.9 size=     768KiB time=00:00:02.70 bitrate=2330.3kbits/s speed=0.0127x elapsed=0:03:33.42    \nframe=   84 fps=0.4 q=48.6 size=     768KiB time=00:00:02.73 bitrate=2301.9kbits/s speed=0.0128x elapsed=0:03:33.96    \nframe=   84 fps=0.4 q=48.6 size=     768KiB time=00:00:02.73 bitrate=2301.9kbits/s speed=0.0127x elapsed=0:03:34.48    \nframe=   84 fps=0.4 q=48.6 size=     768KiB time=00:00:02.73 bitrate=2301.9kbits/s speed=0.0127x elapsed=0:03:35.00    \nframe=   84 fps=0.4 q=48.6 size=     768KiB time=00:00:02.73 bitrate=2301.9kbits/s speed=0.0127x elapsed=0:03:35.51    \nframe=   85 fps=0.4 q=44.1 size=     768KiB time=00:00:02.76 bitrate=2274.1kbits/s speed=0.0128x elapsed=0:03:36.03    \nframe=   85 fps=0.4 q=44.1 size=     768KiB time=00:00:02.76 bitrate=2274.1kbits/s speed=0.0128x elapsed=0:03:36.54    \nframe=   85 fps=0.4 q=44.1 size=     768KiB time=00:00:02.76 bitrate=2274.1kbits/s speed=0.0127x elapsed=0:03:37.07    \nframe=   85 fps=0.4 q=44.1 size=     768KiB time=00:00:02.76 bitrate=2274.1kbits/s speed=0.0127x elapsed=0:03:37.58    \nframe=   86 fps=0.4 q=45.6 size=    1024KiB time=00:00:02.80 bitrate=2996.1kbits/s speed=0.0128x elapsed=0:03:38.10    \nframe=   86 fps=0.4 q=45.6 size=    1024KiB time=00:00:02.80 bitrate=2996.1kbits/s speed=0.0128x elapsed=0:03:38.62    \nframe=   87 fps=0.4 q=48.6 size=    1024KiB time=00:00:02.83 bitrate=2960.8kbits/s speed=0.0129x elapsed=0:03:39.14    \nframe=   87 fps=0.4 q=48.6 size=    1024KiB time=00:00:02.83 bitrate=2960.8kbits/s speed=0.0129x elapsed=0:03:39.67    \nframe=   88 fps=0.4 q=48.4 size=    1024KiB time=00:00:02.86 bitrate=2926.4kbits/s speed=0.013x elapsed=0:03:40.19    \nframe=   88 fps=0.4 q=48.4 size=    1024KiB time=00:00:02.86 bitrate=2926.4kbits/s speed=0.013x elapsed=0:03:40.71    \nframe=   89 fps=0.4 q=48.3 size=    1024KiB time=00:00:02.90 bitrate=2892.7kbits/s speed=0.0131x elapsed=0:03:41.23    \nframe=   89 fps=0.4 q=48.3 size=    1024KiB time=00:00:02.90 bitrate=2892.7kbits/s speed=0.0131x elapsed=0:03:41.74    \nframe=   90 fps=0.4 q=44.3 size=    1024KiB time=00:00:02.93 bitrate=2859.9kbits/s speed=0.0132x elapsed=0:03:42.26    \nframe=   90 fps=0.4 q=44.3 size=    1024KiB time=00:00:02.93 bitrate=2859.9kbits/s speed=0.0132x elapsed=0:03:42.78    \nframe=   90 fps=0.4 q=44.3 size=    1024KiB time=00:00:02.93 bitrate=2859.9kbits/s speed=0.0131x elapsed=0:03:43.30    \nframe=   90 fps=0.4 q=44.3 size=    1024KiB time=00:00:02.93 bitrate=2859.9kbits/s speed=0.0131x elapsed=0:03:43.84    \nframe=   91 fps=0.4 q=46.5 size=    1024KiB time=00:00:02.96 bitrate=2827.7kbits/s speed=0.0132x elapsed=0:03:44.36    \nframe=   91 fps=0.4 q=46.5 size=    1024KiB time=00:00:02.96 bitrate=2827.7kbits/s speed=0.0132x elapsed=0:03:44.87    \nframe=   92 fps=0.4 q=48.4 size=    1024KiB time=00:00:03.00 bitrate=2796.3kbits/s speed=0.0133x elapsed=0:03:45.38    \nframe=   93 fps=0.4 q=48.3 size=    1024KiB time=00:00:03.03 bitrate=2765.6kbits/s speed=0.0134x elapsed=0:03:45.90    \nframe=   93 fps=0.4 q=48.3 size=    1024KiB time=00:00:03.03 bitrate=2765.6kbits/s speed=0.0134x elapsed=0:03:46.43    \nframe=   93 fps=0.4 q=48.3 size=    1024KiB time=00:00:03.03 bitrate=2765.6kbits/s speed=0.0134x elapsed=0:03:46.94    \nframe=   93 fps=0.4 q=48.3 size=    1024KiB time=00:00:03.03 bitrate=2765.6kbits/s speed=0.0133x elapsed=0:03:47.46    \nframe=   94 fps=0.4 q=44.5 size=    1024KiB time=00:00:03.06 bitrate=2735.5kbits/s speed=0.0135x elapsed=0:03:47.98    \nframe=   94 fps=0.4 q=44.5 size=    1024KiB time=00:00:03.06 bitrate=2735.5kbits/s speed=0.0134x elapsed=0:03:48.50    \nframe=   94 fps=0.4 q=44.5 size=    1024KiB time=00:00:03.06 bitrate=2735.5kbits/s speed=0.0134x elapsed=0:03:49.03    \nframe=   95 fps=0.4 q=46.4 size=    1024KiB time=00:00:03.10 bitrate=2706.1kbits/s speed=0.0135x elapsed=0:03:49.57    \nframe=   95 fps=0.4 q=46.4 size=    1024KiB time=00:00:03.10 bitrate=2706.1kbits/s speed=0.0135x elapsed=0:03:50.09    \nframe=   95 fps=0.4 q=46.4 size=    1024KiB time=00:00:03.10 bitrate=2706.1kbits/s speed=0.0134x elapsed=0:03:50.61    \nframe=   96 fps=0.4 q=48.3 size=    1024KiB time=00:00:03.13 bitrate=2677.3kbits/s speed=0.0136x elapsed=0:03:51.13    \nframe=   97 fps=0.4 q=48.3 size=    1024KiB time=00:00:03.16 bitrate=2649.1kbits/s speed=0.0137x elapsed=0:03:51.65    \nframe=   97 fps=0.4 q=48.3 size=    1024KiB time=00:00:03.16 bitrate=2649.1kbits/s speed=0.0136x elapsed=0:03:52.18    \nframe=   97 fps=0.4 q=48.3 size=    1024KiB time=00:00:03.16 bitrate=2649.1kbits/s speed=0.0136x elapsed=0:03:52.69    \nframe=   97 fps=0.4 q=48.3 size=    1024KiB time=00:00:03.16 bitrate=2649.1kbits/s speed=0.0136x elapsed=0:03:53.22    \nframe=   98 fps=0.4 q=44.3 size=    1024KiB time=00:00:03.20 bitrate=2621.6kbits/s speed=0.0137x elapsed=0:03:53.74    \nframe=   98 fps=0.4 q=44.3 size=    1024KiB time=00:00:03.20 bitrate=2621.6kbits/s speed=0.0137x elapsed=0:03:54.26    \nframe=   98 fps=0.4 q=44.3 size=    1024KiB time=00:00:03.20 bitrate=2621.6kbits/s speed=0.0136x elapsed=0:03:54.79    \nframe=   99 fps=0.4 q=46.3 size=    1024KiB time=00:00:03.23 bitrate=2594.5kbits/s speed=0.0137x elapsed=0:03:55.31    \nframe=   99 fps=0.4 q=46.3 size=    1024KiB time=00:00:03.23 bitrate=2594.5kbits/s speed=0.0137x elapsed=0:03:55.86    \nframe=  100 fps=0.4 q=48.0 size=    1024KiB time=00:00:03.26 bitrate=2568.0kbits/s speed=0.0138x elapsed=0:03:56.37    \nframe=  101 fps=0.4 q=48.4 size=    1024KiB time=00:00:03.30 bitrate=2542.1kbits/s speed=0.0139x elapsed=0:03:56.89    \nframe=  101 fps=0.4 q=48.4 size=    1024KiB time=00:00:03.30 bitrate=2542.1kbits/s speed=0.0139x elapsed=0:03:57.39    \nframe=  102 fps=0.4 q=44.2 size=    1024KiB time=00:00:03.33 bitrate=2516.7kbits/s speed=0.014x elapsed=0:03:57.92    \nframe=  102 fps=0.4 q=44.2 size=    1024KiB time=00:00:03.33 bitrate=2516.7kbits/s speed=0.014x elapsed=0:03:58.43    \nframe=  103 fps=0.4 q=46.3 size=    1024KiB time=00:00:03.36 bitrate=2491.8kbits/s speed=0.0141x elapsed=0:03:58.95    \nframe=  104 fps=0.4 q=48.4 size=    1024KiB time=00:00:03.40 bitrate=2467.3kbits/s speed=0.0142x elapsed=0:03:59.46    \nframe=  105 fps=0.4 q=48.2 size=    1024KiB time=00:00:03.43 bitrate=2443.4kbits/s speed=0.0143x elapsed=0:03:59.98    \nframe=  105 fps=0.4 q=48.2 size=    1024KiB time=00:00:03.43 bitrate=2443.4kbits/s speed=0.0143x elapsed=0:04:00.49    \nframe=  106 fps=0.4 q=43.9 size=    1024KiB time=00:00:03.46 bitrate=2419.9kbits/s speed=0.0144x elapsed=0:04:01.01    \nframe=  106 fps=0.4 q=43.9 size=    1024KiB time=00:00:03.46 bitrate=2419.9kbits/s speed=0.0144x elapsed=0:04:01.52    \nframe=  107 fps=0.4 q=46.2 size=    1024KiB time=00:00:03.50 bitrate=2396.8kbits/s speed=0.0145x elapsed=0:04:02.04    \nframe=  108 fps=0.4 q=48.2 size=    1280KiB time=00:00:03.53 bitrate=2967.8kbits/s speed=0.0146x elapsed=0:04:02.56    \nframe=  109 fps=0.4 q=48.4 size=    1280KiB time=00:00:03.56 bitrate=2940.0kbits/s speed=0.0147x elapsed=0:04:03.08    \nframe=  109 fps=0.4 q=48.4 size=    1280KiB time=00:00:03.56 bitrate=2940.0kbits/s speed=0.0146x elapsed=0:04:03.59    \nframe=  110 fps=0.5 q=43.9 size=    1280KiB time=00:00:03.60 bitrate=2912.8kbits/s speed=0.0147x elapsed=0:04:04.11    \nframe=  110 fps=0.4 q=43.9 size=    1280KiB time=00:00:03.60 bitrate=2912.8kbits/s speed=0.0147x elapsed=0:04:04.62    \nframe=  111 fps=0.5 q=45.8 size=    1280KiB time=00:00:03.63 bitrate=2886.1kbits/s speed=0.0148x elapsed=0:04:05.13    \nframe=  112 fps=0.5 q=48.4 size=    1280KiB time=00:00:03.66 bitrate=2859.8kbits/s speed=0.0149x elapsed=0:04:05.66    \nframe=  113 fps=0.5 q=48.2 size=    1280KiB time=00:00:03.70 bitrate=2834.1kbits/s speed=0.015x elapsed=0:04:06.18    \nframe=  113 fps=0.5 q=48.2 size=    1280KiB time=00:00:03.70 bitrate=2834.1kbits/s speed=0.015x elapsed=0:04:06.69    \nframe=  114 fps=0.5 q=43.9 size=    1280KiB time=00:00:03.73 bitrate=2808.8kbits/s speed=0.0151x elapsed=0:04:07.22    \nframe=  114 fps=0.5 q=43.9 size=    1280KiB time=00:00:03.73 bitrate=2808.8kbits/s speed=0.0151x elapsed=0:04:07.73    \nframe=  115 fps=0.5 q=46.2 size=    1280KiB time=00:00:03.76 bitrate=2783.9kbits/s speed=0.0152x elapsed=0:04:08.24    \nframe=  115 fps=0.5 q=46.2 size=    1280KiB time=00:00:03.76 bitrate=2783.9kbits/s speed=0.0151x elapsed=0:04:08.76    \nframe=  117 fps=0.5 q=48.3 size=    1280KiB time=00:00:03.83 bitrate=2735.5kbits/s speed=0.0154x elapsed=0:04:09.27    \nframe=  117 fps=0.5 q=48.3 size=    1280KiB time=00:00:03.83 bitrate=2735.5kbits/s speed=0.0153x elapsed=0:04:09.80    \nframe=  118 fps=0.5 q=44.1 size=    1280KiB time=00:00:03.86 bitrate=2711.9kbits/s speed=0.0154x elapsed=0:04:10.31    \nframe=  118 fps=0.5 q=44.1 size=    1280KiB time=00:00:03.86 bitrate=2711.9kbits/s speed=0.0154x elapsed=0:04:10.83    \nframe=  119 fps=0.5 q=46.0 size=    1280KiB time=00:00:03.90 bitrate=2688.7kbits/s speed=0.0155x elapsed=0:04:11.33    \nframe=  119 fps=0.5 q=46.0 size=    1280KiB time=00:00:03.90 bitrate=2688.7kbits/s speed=0.0155x elapsed=0:04:11.85    \nframe=  121 fps=0.5 q=48.3 size=    1280KiB time=00:00:03.96 bitrate=2643.6kbits/s speed=0.0157x elapsed=0:04:12.38    \nframe=  121 fps=0.5 q=48.3 size=    1280KiB time=00:00:03.96 bitrate=2643.6kbits/s speed=0.0157x elapsed=0:04:12.89    \nframe=  121 fps=0.5 q=48.3 size=    1280KiB time=00:00:03.96 bitrate=2643.6kbits/s speed=0.0157x elapsed=0:04:13.41    \nframe=  122 fps=0.5 q=44.0 size=    1280KiB time=00:00:04.00 bitrate=2621.5kbits/s speed=0.0158x elapsed=0:04:13.92    \nframe=  122 fps=0.5 q=44.0 size=    1280KiB time=00:00:04.00 bitrate=2621.5kbits/s speed=0.0157x elapsed=0:04:14.43    \nframe=  122 fps=0.5 q=44.0 size=    1280KiB time=00:00:04.00 bitrate=2621.5kbits/s speed=0.0157x elapsed=0:04:14.95    \nframe=  124 fps=0.5 q=48.3 size=    1280KiB time=00:00:04.06 bitrate=2578.6kbits/s speed=0.0159x elapsed=0:04:15.46    \nframe=  125 fps=0.5 q=48.2 size=    1280KiB time=00:00:04.10 bitrate=2557.6kbits/s speed=0.016x elapsed=0:04:15.98    \nframe=  125 fps=0.5 q=48.2 size=    1280KiB time=00:00:04.10 bitrate=2557.6kbits/s speed=0.016x elapsed=0:04:16.50    \nframe=  125 fps=0.5 q=48.2 size=    1280KiB time=00:00:04.10 bitrate=2557.6kbits/s speed=0.016x elapsed=0:04:17.01    \nframe=  126 fps=0.5 q=43.9 size=    1280KiB time=00:00:04.13 bitrate=2537.0kbits/s speed=0.016x elapsed=0:04:17.52    \nframe=  126 fps=0.5 q=43.9 size=    1280KiB time=00:00:04.13 bitrate=2537.0kbits/s speed=0.016x elapsed=0:04:18.04    \nframe=  127 fps=0.5 q=46.0 size=    1280KiB time=00:00:04.16 bitrate=2516.7kbits/s speed=0.0161x elapsed=0:04:18.56    \nframe=  129 fps=0.5 q=48.1 size=    1536KiB time=00:00:04.23 bitrate=2972.4kbits/s speed=0.0163x elapsed=0:04:19.07    \nframe=  129 fps=0.5 q=48.1 size=    1536KiB time=00:00:04.23 bitrate=2972.4kbits/s speed=0.0163x elapsed=0:04:19.59    \nframe=  129 fps=0.5 q=48.1 size=    1536KiB time=00:00:04.23 bitrate=2972.4kbits/s speed=0.0163x elapsed=0:04:20.11    \nframe=  130 fps=0.5 q=44.1 size=    1536KiB time=00:00:04.26 bitrate=2949.2kbits/s speed=0.0164x elapsed=0:04:20.62    \nframe=  130 fps=0.5 q=44.1 size=    1536KiB time=00:00:04.26 bitrate=2949.2kbits/s speed=0.0163x elapsed=0:04:21.14    \nframe=  131 fps=0.5 q=45.9 size=    1536KiB time=00:00:04.30 bitrate=2926.3kbits/s speed=0.0164x elapsed=0:04:21.65    \nframe=  132 fps=0.5 q=48.4 size=    1536KiB time=00:00:04.33 bitrate=2903.8kbits/s speed=0.0165x elapsed=0:04:22.17    \nframe=  133 fps=0.5 q=48.1 size=    1536KiB time=00:00:04.36 bitrate=2881.7kbits/s speed=0.0166x elapsed=0:04:22.68    \nframe=  133 fps=0.5 q=48.1 size=    1536KiB time=00:00:04.36 bitrate=2881.7kbits/s speed=0.0166x elapsed=0:04:23.19    \nframe=  133 fps=0.5 q=48.1 size=    1536KiB time=00:00:04.36 bitrate=2881.7kbits/s speed=0.0166x elapsed=0:04:23.72    \nframe=  133 fps=0.5 q=48.1 size=    1536KiB time=00:00:04.36 bitrate=2881.7kbits/s speed=0.0165x elapsed=0:04:24.23    \nframe=  133 fps=0.5 q=48.1 size=    1536KiB time=00:00:04.36 bitrate=2881.7kbits/s speed=0.0165x elapsed=0:04:24.75    \nframe=  133 fps=0.5 q=48.1 size=    1536KiB time=00:00:04.36 bitrate=2881.7kbits/s speed=0.0165x elapsed=0:04:25.26    \nframe=  133 fps=0.5 q=48.1 size=    1536KiB time=00:00:04.36 bitrate=2881.7kbits/s speed=0.0164x elapsed=0:04:25.78    \nframe=  134 fps=0.5 q=44.1 size=    1536KiB time=00:00:04.40 bitrate=2859.8kbits/s speed=0.0165x elapsed=0:04:26.29    \nframe=  134 fps=0.5 q=44.1 size=    1536KiB time=00:00:04.40 bitrate=2859.8kbits/s speed=0.0165x elapsed=0:04:26.81    \nframe=  134 fps=0.5 q=44.1 size=    1536KiB time=00:00:04.40 bitrate=2859.8kbits/s speed=0.0165x elapsed=0:04:27.35    \nframe=  134 fps=0.5 q=44.1 size=    1536KiB time=00:00:04.40 bitrate=2859.8kbits/s speed=0.0164x elapsed=0:04:27.87    \nframe=  134 fps=0.5 q=44.1 size=    1536KiB time=00:00:04.40 bitrate=2859.8kbits/s speed=0.0164x elapsed=0:04:28.40    \nframe=  134 fps=0.5 q=44.1 size=    1536KiB time=00:00:04.40 bitrate=2859.8kbits/s speed=0.0164x elapsed=0:04:28.92    \nframe=  135 fps=0.5 q=46.2 size=    1536KiB time=00:00:04.43 bitrate=2838.3kbits/s speed=0.0165x elapsed=0:04:29.44    \nframe=  135 fps=0.5 q=46.2 size=    1536KiB time=00:00:04.43 bitrate=2838.3kbits/s speed=0.0164x elapsed=0:04:29.97    \nframe=  136 fps=0.5 q=48.4 size=    1536KiB time=00:00:04.46 bitrate=2817.1kbits/s speed=0.0165x elapsed=0:04:30.52    \nframe=  137 fps=0.5 q=48.1 size=    1536KiB time=00:00:04.50 bitrate=2796.3kbits/s speed=0.0166x elapsed=0:04:31.05    \nframe=  137 fps=0.5 q=48.1 size=    1536KiB time=00:00:04.50 bitrate=2796.3kbits/s speed=0.0166x elapsed=0:04:31.58    \nframe=  137 fps=0.5 q=48.1 size=    1536KiB time=00:00:04.50 bitrate=2796.3kbits/s speed=0.0165x elapsed=0:04:32.11    \nframe=  137 fps=0.5 q=48.1 size=    1536KiB time=00:00:04.50 bitrate=2796.3kbits/s speed=0.0165x elapsed=0:04:32.65    \nframe=  137 fps=0.5 q=48.1 size=    1536KiB time=00:00:04.50 bitrate=2796.3kbits/s speed=0.0165x elapsed=0:04:33.19    \nframe=  137 fps=0.5 q=48.1 size=    1536KiB time=00:00:04.50 bitrate=2796.3kbits/s speed=0.0164x elapsed=0:04:33.72    \nframe=  138 fps=0.5 q=43.9 size=    1536KiB time=00:00:04.53 bitrate=2775.7kbits/s speed=0.0165x elapsed=0:04:34.25    \nframe=  138 fps=0.5 q=43.9 size=    1536KiB time=00:00:04.53 bitrate=2775.7kbits/s speed=0.0165x elapsed=0:04:34.78    \nframe=  138 fps=0.5 q=43.9 size=    1536KiB time=00:00:04.53 bitrate=2775.7kbits/s speed=0.0165x elapsed=0:04:35.30    \nframe=  138 fps=0.5 q=43.9 size=    1536KiB time=00:00:04.53 bitrate=2775.7kbits/s speed=0.0164x elapsed=0:04:35.85    \nframe=  138 fps=0.5 q=43.9 size=    1536KiB time=00:00:04.53 bitrate=2775.7kbits/s speed=0.0164x elapsed=0:04:36.38    \nframe=  138 fps=0.5 q=43.9 size=    1536KiB time=00:00:04.53 bitrate=2775.7kbits/s speed=0.0164x elapsed=0:04:36.91    \nframe=  138 fps=0.5 q=43.9 size=    1536KiB time=00:00:04.53 bitrate=2775.7kbits/s speed=0.0163x elapsed=0:04:37.43    \nframe=  138 fps=0.5 q=43.9 size=    1536KiB time=00:00:04.53 bitrate=2775.7kbits/s speed=0.0163x elapsed=0:04:37.96    \nframe=  139 fps=0.5 q=46.1 size=    1536KiB time=00:00:04.56 bitrate=2755.5kbits/s speed=0.0164x elapsed=0:04:38.48    \nframe=  139 fps=0.5 q=46.1 size=    1536KiB time=00:00:04.56 bitrate=2755.5kbits/s speed=0.0164x elapsed=0:04:39.00    \nframe=  140 fps=0.5 q=48.1 size=    1536KiB time=00:00:04.60 bitrate=2735.5kbits/s speed=0.0165x elapsed=0:04:39.51    \nframe=  141 fps=0.5 q=47.8 size=    1536KiB time=00:00:04.63 bitrate=2715.8kbits/s speed=0.0165x elapsed=0:04:40.02    \nframe=  141 fps=0.5 q=47.8 size=    1536KiB time=00:00:04.63 bitrate=2715.8kbits/s speed=0.0165x elapsed=0:04:40.54    \nframe=  141 fps=0.5 q=47.8 size=    1536KiB time=00:00:04.63 bitrate=2715.8kbits/s speed=0.0165x elapsed=0:04:41.06    \nframe=  141 fps=0.5 q=47.8 size=    1536KiB time=00:00:04.63 bitrate=2715.8kbits/s speed=0.0165x elapsed=0:04:41.59    \nframe=  141 fps=0.5 q=47.8 size=    1536KiB time=00:00:04.63 bitrate=2715.8kbits/s speed=0.0164x elapsed=0:04:42.11    \nframe=  141 fps=0.5 q=47.8 size=    1536KiB time=00:00:04.63 bitrate=2715.8kbits/s speed=0.0164x elapsed=0:04:42.62    \nframe=  141 fps=0.5 q=47.8 size=    1536KiB time=00:00:04.63 bitrate=2715.8kbits/s speed=0.0164x elapsed=0:04:43.15    \nframe=  142 fps=0.5 q=43.7 size=    1536KiB time=00:00:04.66 bitrate=2696.4kbits/s speed=0.0165x elapsed=0:04:43.67    \nframe=  142 fps=0.5 q=43.7 size=    1536KiB time=00:00:04.66 bitrate=2696.4kbits/s speed=0.0164x elapsed=0:04:44.18    \nframe=  142 fps=0.5 q=43.7 size=    1536KiB time=00:00:04.66 bitrate=2696.4kbits/s speed=0.0164x elapsed=0:04:44.70    \nframe=  142 fps=0.5 q=43.7 size=    1536KiB time=00:00:04.66 bitrate=2696.4kbits/s speed=0.0164x elapsed=0:04:45.24    \nframe=  142 fps=0.5 q=43.7 size=    1536KiB time=00:00:04.66 bitrate=2696.4kbits/s speed=0.0163x elapsed=0:04:45.77    \nframe=  143 fps=0.5 q=46.6 size=    1536KiB time=00:00:04.70 bitrate=2677.3kbits/s speed=0.0164x elapsed=0:04:46.29    \nframe=  143 fps=0.5 q=46.6 size=    1536KiB time=00:00:04.70 bitrate=2677.3kbits/s speed=0.0164x elapsed=0:04:46.81    \nframe=  144 fps=0.5 q=48.0 size=    1536KiB time=00:00:04.73 bitrate=2658.4kbits/s speed=0.0165x elapsed=0:04:47.33    \nframe=  145 fps=0.5 q=47.6 size=    1536KiB time=00:00:04.76 bitrate=2639.8kbits/s speed=0.0166x elapsed=0:04:47.87    \nframe=  145 fps=0.5 q=47.6 size=    1536KiB time=00:00:04.76 bitrate=2639.8kbits/s speed=0.0165x elapsed=0:04:48.42    \nframe=  146 fps=0.5 q=48.3 size=    1536KiB time=00:00:04.80 bitrate=2621.5kbits/s speed=0.0166x elapsed=0:04:49.01    \nframe=  146 fps=0.5 q=48.3 size=    1536KiB time=00:00:04.80 bitrate=2621.5kbits/s speed=0.0166x elapsed=0:04:49.57    \nframe=  146 fps=0.5 q=48.3 size=    1536KiB time=00:00:04.80 bitrate=2621.5kbits/s speed=0.0165x elapsed=0:04:50.08    \nframe=  146 fps=0.5 q=48.3 size=    1536KiB time=00:00:04.80 bitrate=2621.5kbits/s speed=0.0165x elapsed=0:04:50.61    \nframe=  146 fps=0.5 q=48.3 size=    1536KiB time=00:00:04.80 bitrate=2621.5kbits/s speed=0.0165x elapsed=0:04:51.13    \nframe=  146 fps=0.5 q=48.3 size=    1536KiB time=00:00:04.80 bitrate=2621.5kbits/s speed=0.0165x elapsed=0:04:51.65    \nframe=  146 fps=0.5 q=48.3 size=    1536KiB time=00:00:04.80 bitrate=2621.5kbits/s speed=0.0164x elapsed=0:04:52.17    \nframe=  146 fps=0.5 q=48.3 size=    1536KiB time=00:00:04.80 bitrate=2621.5kbits/s speed=0.0164x elapsed=0:04:52.68    \nframe=  147 fps=0.5 q=45.3 size=    1536KiB time=00:00:04.83 bitrate=2603.4kbits/s speed=0.0165x elapsed=0:04:53.20    \nframe=  147 fps=0.5 q=45.3 size=    1536KiB time=00:00:04.83 bitrate=2603.4kbits/s speed=0.0165x elapsed=0:04:53.77    \nframe=  147 fps=0.5 q=45.3 size=    1536KiB time=00:00:04.83 bitrate=2603.4kbits/s speed=0.0164x elapsed=0:04:54.27    \nframe=  147 fps=0.5 q=45.3 size=    1536KiB time=00:00:04.83 bitrate=2603.4kbits/s speed=0.0164x elapsed=0:04:54.79    \nframe=  148 fps=0.5 q=46.0 size=    1536KiB time=00:00:04.86 bitrate=2585.6kbits/s speed=0.0165x elapsed=0:04:55.31    \nframe=  148 fps=0.5 q=46.0 size=    1536KiB time=00:00:04.86 bitrate=2585.6kbits/s speed=0.0165x elapsed=0:04:55.82    \nframe=  148 fps=0.5 q=46.0 size=    1536KiB time=00:00:04.86 bitrate=2585.6kbits/s speed=0.0164x elapsed=0:04:56.35    \n[mp4 @ 0000029d4d4b9740] Starting second pass: moving the moov atom to the beginning of the file\n[out#0/mp4 @ 0000029d4d4aab00] video:1801KiB audio:0KiB subtitle:0KiB other streams:0KiB global headers:2KiB muxing overhead: 0.287120%\nframe=  150 fps=0.5 q=48.3 Lsize=    1806KiB time=00:00:04.93 bitrate=2999.7kbits/s speed=0.0166x elapsed=0:04:56.56    \nx265 [info]: frame I:      1, Avg QP:41.81  kb/s: 10581.36\nx265 [info]: frame P:     36, Avg QP:44.36  kb/s: 5713.77 \nx265 [info]: frame B:    113, Avg QP:48.13  kb/s: 2002.35 \nx265 [info]: Weighted P-Frames: Y:16.7% UV:11.1%\n\nencoded 150 frames in 295.84s (0.51 fps), 2950.28 kb/s, Avg QP:47.18\n",
  "seconds": 296.89816546440125,
  "probe_out": {}
}